<svg width="121" height="65" viewBox="0 0 121 65" fill="none" xmlns="http://www.w3.org/2000/svg">
<path d="M22.0589 0.757386H29.0377V27.8069H22.0589V24.6151C19.9671 27.2479 17.0277 28.5643 13.2407 28.5643C9.63413 28.5643 6.53245 27.1938 3.9357 24.4528C1.37501 21.6757 0.0946655 18.2855 0.0946655 14.2821C0.0946655 10.2788 1.37501 6.90664 3.9357 4.16563C6.53245 1.38854 9.63413 0 13.2407 0C17.0277 0 19.9671 1.31641 22.0589 3.94923V0.757386ZM9.18331 19.8002C10.5899 21.2068 12.3752 21.9101 14.5391 21.9101C16.7031 21.9101 18.4883 21.2068 19.8949 19.8002C21.3376 18.3576 22.0589 16.5182 22.0589 14.2821C22.0589 12.0461 21.3376 10.2247 19.8949 8.81814C18.4883 7.3755 16.7031 6.65418 14.5391 6.65418C12.3752 6.65418 10.5899 7.3755 9.18331 8.81814C7.77673 10.2247 7.07344 12.0461 7.07344 14.2821C7.07344 16.5182 7.77673 18.3576 9.18331 19.8002Z" fill="#262A2C"/>
<path d="M51.1088 0C54.7515 0 57.8531 1.38854 60.4138 4.16563C63.0106 6.90664 64.309 10.2788 64.309 14.2821C64.309 18.2855 63.0106 21.6757 60.4138 24.4528C57.8531 27.1938 54.7515 28.5643 51.1088 28.5643C47.3219 28.5643 44.4005 27.2479 42.3448 24.6151V38.6267H35.366V0.757386H42.3448V3.94923C44.4005 1.31641 47.3219 0 51.1088 0ZM44.4546 19.8002C45.8612 21.2068 47.6465 21.9101 49.8104 21.9101C51.9744 21.9101 53.7597 21.2068 55.1662 19.8002C56.6089 18.3576 57.3302 16.5182 57.3302 14.2821C57.3302 12.0461 56.6089 10.2247 55.1662 8.81814C53.7597 7.3755 51.9744 6.65418 49.8104 6.65418C47.6465 6.65418 45.8612 7.3755 44.4546 8.81814C43.048 10.2247 42.3448 12.0461 42.3448 14.2821C42.3448 16.5182 43.048 18.3576 44.4546 19.8002Z" fill="#262A2C"/>
<path d="M75.1275 17.1494C76.0652 20.5396 78.6079 22.2347 82.7555 22.2347C85.4244 22.2347 87.4441 21.3331 88.8146 19.5298L94.4409 22.7757C91.772 26.6348 87.8408 28.5643 82.6473 28.5643C78.1751 28.5643 74.5865 27.2118 71.8816 24.5069C69.1766 21.8019 67.8241 18.3937 67.8241 14.2821C67.8241 10.2067 69.1586 6.81648 71.8275 4.11153C74.4964 1.37051 77.9226 0 82.1063 0C86.0736 0 89.3375 1.37051 91.8982 4.11153C94.495 6.85254 95.7934 10.2428 95.7934 14.2821C95.7934 15.1838 95.7032 16.1395 95.5229 17.1494H75.1275ZM75.0193 11.7395H88.8146C88.4178 9.90012 87.5883 8.52961 86.326 7.62796C85.0998 6.72631 83.6932 6.27549 82.1063 6.27549C80.2309 6.27549 78.68 6.76238 77.4538 7.73616C76.2275 8.67388 75.416 10.0083 75.0193 11.7395Z" fill="#262A2C"/>
<path d="M106.046 8.43945C106.046 9.16077 106.515 9.75586 107.453 10.2247C108.427 10.6575 109.599 11.0542 110.969 11.4149C112.34 11.7395 113.71 12.1723 115.081 12.7133C116.451 13.2182 117.606 14.0838 118.543 15.31C119.517 16.5363 120.004 18.0691 120.004 19.9084C120.004 22.6855 118.958 24.8315 116.866 26.3462C114.81 27.8249 112.232 28.5643 109.13 28.5643C103.576 28.5643 99.7889 26.4184 97.7692 22.1265L103.828 18.7183C104.622 21.0626 106.389 22.2347 109.13 22.2347C111.619 22.2347 112.863 21.4593 112.863 19.9084C112.863 19.1871 112.376 18.6101 111.402 18.1773C110.464 17.7084 109.31 17.2937 107.94 16.933C106.569 16.5723 105.199 16.1215 103.828 15.5805C102.458 15.0395 101.286 14.192 100.312 13.0379C99.3742 11.8477 98.9053 10.369 98.9053 8.60175C98.9053 5.93286 99.8791 3.84103 101.827 2.32626C103.81 0.775419 106.263 0 109.184 0C111.384 0 113.386 0.504924 115.189 1.51477C116.992 2.48855 118.417 3.89513 119.463 5.7345L113.512 8.98044C112.646 7.14107 111.204 6.22139 109.184 6.22139C108.282 6.22139 107.525 6.41975 106.912 6.81648C106.335 7.2132 106.046 7.75419 106.046 8.43945Z" fill="#262A2C"/>
<path d="M62.4678 43.408C60.8771 47.9927 58.2682 52.1574 54.8371 55.5893C51.4061 59.0211 47.242 61.631 42.6576 63.2228C38.0733 64.8146 33.1879 65.347 28.3683 64.78C23.5487 64.213 18.9202 62.5613 14.8305 59.9491L18.5272 54.1615C21.7425 56.2153 25.3815 57.5139 29.1707 57.9596C32.9599 58.4054 36.8008 57.9868 40.405 56.7353C44.0092 55.4839 47.2831 53.432 49.9806 50.7338C52.6781 48.0357 54.7292 44.7614 55.9799 41.1569L62.4678 43.408Z" fill="#FF4E53"/>
</svg>
